<?xml version="1.0" standalone="no"?>
<!DOCTYPE svg PUBLIC "-//W3C//DTD SVG 20010904//EN"
 "http://www.w3.org/TR/2001/REC-SVG-20010904/DTD/svg10.dtd">
<svg version="1.0" xmlns="http://www.w3.org/2000/svg"
 width="321.000000pt" height="321.000000pt" viewBox="0 0 321.000000 321.000000"
 preserveAspectRatio="xMidYMid meet">
<metadata>
Created by potrace 1.11, written by Peter Selinger 2001-2013
</metadata>
<g transform="translate(0.000000,321.000000) scale(0.100000,-0.100000)"
fill="#000000" stroke="none">
<path d="M464 3190 c-175 -46 -321 -165 -398 -325 -65 -135 -63 -90 -61 -1270
1 -788 4 -1082 13 -1117 60 -240 261 -423 507 -464 52 -9 2107 -9 2160 0 22 4
58 11 80 17 50 14 185 80 185 91 0 4 6 8 14 8 8 0 17 7 20 16 3 8 11 12 16 9
6 -4 9 -2 8 3 -2 4 13 25 32 44 38 39 84 92 82 95 -1 2 12 31 27 65 57 126 55
86 55 1243 0 996 -2 1075 -18 1140 -28 107 -81 200 -161 281 -76 76 -143 119
-245 156 l-65 23 -1090 2 c-1037 2 -1093 1 -1161 -17z"/>
</g>
</svg>
