<svg id="light_logo" xmlns="http://www.w3.org/2000/svg" viewBox="0 0 1279.22 349.85"><defs><style>.cls-1{fill:#fff;}.cls-2{fill:#ff9800;}</style></defs><title>light_logo</title><path class="cls-1" d="M423.32,496.1v3.84a19.84,19.84,0,0,1-.27,3.32,55.67,55.67,0,0,1-8.35,23.33,67,67,0,0,1-39.11,28.77,57.64,57.64,0,0,1-24.92,1.19q.25,3.72.26,7.29v10.34q0,6.77.14,18.16t.66,30.76v.27a.54.54,0,0,0-.4.13.54.54,0,0,1-.4.13,46.28,46.28,0,0,1-9.41,1.46q-5.7.4-11.93.53t-12.33-.13c-4.07-.18-7.6-.44-10.6-.8q-.8-19.35-.8-42V536.13q0-23.85-.13-48T304.8,442a151.44,151.44,0,0,1,23.73-4.25,139,139,0,0,1,25.72-.26,125.46,125.46,0,0,1,25.06,4.64,67.7,67.7,0,0,1,21.61,10.61,57.49,57.49,0,0,1,15.51,17.63Q422.52,481,423.32,496.1ZM376.92,485a32.86,32.86,0,0,0-15.38-6.76,42,42,0,0,0-17.23.66,1.06,1.06,0,0,0-.8.27c.17,3.18.22,6.54.13,10.07s-.09,7.07,0,10.61.27,6.94.53,10.21a37.6,37.6,0,0,0,1.73,8.88h.79c2.83-.17,5.84-.31,9-.4s6.32-.31,9.41-.66a44.41,44.41,0,0,0,9-2,13.93,13.93,0,0,0,10.6-11.27,17.55,17.55,0,0,0,.27-7.42,19.35,19.35,0,0,0-2.66-6.9A16.5,16.5,0,0,0,376.92,485Z" transform="translate(-304.8 -358.85)"/><path class="cls-1" d="M471,508c.89-.53,2-1.15,3.32-1.86a20.9,20.9,0,0,0,3.31-2.12,48.83,48.83,0,0,1,12.47-6.36A48.26,48.26,0,0,1,504.32,495a47.46,47.46,0,0,1,14.19,1.59A31.5,31.5,0,0,1,531,503.26q2.64,2.39,4.11,9.94a121.17,121.17,0,0,1,1.85,18.16q.41,10.6.27,23.2T536.8,580q-.27,12.87-.53,24.8t.27,20.94A105.44,105.44,0,0,1,520,627q-7.29-.15-16.57-.14-.52-6.09-.53-13.78t.13-15.91q.13-8.22,0-16.44t-.66-15.38c-.18-2.12-.35-4.46-.53-7a71.74,71.74,0,0,0-.93-7.55,33,33,0,0,0-1.85-6.63,10.35,10.35,0,0,0-3.32-4.51.78.78,0,0,0-.53-.26.76.76,0,0,1-.53-.27,22.69,22.69,0,0,0-6.23-1.72,17.87,17.87,0,0,0-8.09.53,15.44,15.44,0,0,0-7.15,4.77c-2.13,2.39-3.36,6-3.72,10.74q-.52,9.28-.26,18.16t.66,17.76q.4,8.9.4,17.64a146.89,146.89,0,0,1-1.06,17.5v1.06a40.25,40.25,0,0,1-7.82,1.59,58.36,58.36,0,0,1-6.76.13c-2.3-.09-4.87-.22-7.69-.4a75.34,75.34,0,0,0-10.61.27q0-10.87-.13-26.12t-.27-32.74q-.14-17.51-.13-36.2V495.57q0-17.76.13-33.54t.4-27.45c2.12.18,3.89.31,5.3.4s2.74.13,4,.13,2.56,0,4-.13,3.18-.22,5.3-.4a29.94,29.94,0,0,0,3.71-.39c1.77-.27,3.54-.49,5.31-.67a30.24,30.24,0,0,1,4.77-.13c1.41.09,2.12.4,2.12.93a53.52,53.52,0,0,1,.26,7V508Z" transform="translate(-304.8 -358.85)"/><path class="cls-1" d="M589.83,677.19v2.92c0,.17-1.19.4-3.58.66s-5.3.44-8.75.53-7.12.09-11,0a63.52,63.52,0,0,1-10.08-.93v-17.5q0-22-.53-44T555,575.51q-.39-21.35-.53-41.9t.4-39.63q8.22,0,18-.4a103.78,103.78,0,0,1,17.77.66,4.72,4.72,0,0,1,.26,1.86c0,1.77,0,3.18.13,4.24s.14,2.56.14,4.51a5.75,5.75,0,0,0,1.19,2c.44.45.93.14,1.46-.92q4-8,10.6-10.21a29.94,29.94,0,0,1,14.06-1.19q15.1,1,23.86,7.82a41.58,41.58,0,0,1,13.12,17.23,82.16,82.16,0,0,1,5.7,23.47q1.33,13,1.86,26.25a134.27,134.27,0,0,1-1.19,18,84.06,84.06,0,0,1-3.72,16,42,42,0,0,1-6.62,12.46,22.29,22.29,0,0,1-10,7.29,57.89,57.89,0,0,1-15.77,3.32,103.18,103.18,0,0,1-16.31,0,53.4,53.4,0,0,1-13-2.52c-3.54-1.24-5.48-2.65-5.83-4.25q.25,12.47.26,20.16v12.32c0,3.1,0,5.48-.13,7.16s-.18,3.27-.27,4.78-.18,3.18-.26,5S590,673.65,589.83,677.19Zm41.1-100a28.61,28.61,0,0,0,1.59-7.69q.26-4,.26-7.69A51.9,51.9,0,0,0,631.19,549a37.23,37.23,0,0,0-4.77-11.13,26,26,0,0,0-7.69-7.82,18.11,18.11,0,0,0-10.07-2.92q-6.9,0-10.61,2.92a18.33,18.33,0,0,0-5.7,8,39.28,39.28,0,0,0-2.39,12.2q-.39,7.15-.4,15.37,0,10.35.4,16.31a24.83,24.83,0,0,0,2,9.15,7.57,7.57,0,0,0,4.91,4.11,34,34,0,0,0,8.88.93q10.86,0,17.37-4.78T630.93,577.23Z" transform="translate(-304.8 -358.85)"/><path class="cls-1" d="M792.93,448.9q1.59,33.94,1.06,68.54t-4.24,68.81a52.23,52.23,0,0,1-13.26,29.69Q765.36,628.15,746.26,630a89.24,89.24,0,0,1-23.06-.93,69.88,69.88,0,0,1-21.61-7.16,48.69,48.69,0,0,1-16.18-13.79q-6.49-8.61-7-20.81,0-35,.79-70.53t.27-70.53l-.27-.27h.27c2.65,0,5.61-.08,8.88-.26s6.58-.27,9.94-.27,6.63.14,9.81.4a51.32,51.32,0,0,1,8.75,1.46v.26a1036.74,1036.74,0,0,0,2.39,130.19A15.17,15.17,0,0,0,726,587a17.81,17.81,0,0,0,10.21,2.65A17.25,17.25,0,0,0,746,586a15.75,15.75,0,0,0,5.83-9.54q1.32-31.83,1.46-64.7t.93-63.64c2.29-.17,5.26-.48,8.88-.92s7.29-.75,11-.93a71.08,71.08,0,0,1,10.61.26A20.75,20.75,0,0,1,792.93,448.9Z" transform="translate(-304.8 -358.85)"/><path class="cls-1" d="M847.28,508c.88-.53,2-1.15,3.32-1.86a21.38,21.38,0,0,0,3.31-2.12,49.63,49.63,0,0,1,26.65-9,47.39,47.39,0,0,1,14.18,1.59,31.54,31.54,0,0,1,12.47,6.63q2.64,2.39,4.1,9.94a119.74,119.74,0,0,1,1.86,18.16q.41,10.6.27,23.2T913,580q-.27,12.87-.53,24.8t.26,20.94A105.32,105.32,0,0,1,896.2,627q-7.29-.15-16.57-.14-.54-6.09-.53-13.78t.13-15.91q.13-8.22,0-16.44t-.66-15.38q-.27-3.18-.53-7a71.74,71.74,0,0,0-.93-7.55,32.3,32.3,0,0,0-1.86-6.63,10.33,10.33,0,0,0-3.31-4.51.8.8,0,0,0-.53-.26.74.74,0,0,1-.53-.27,22.8,22.8,0,0,0-6.23-1.72,17.86,17.86,0,0,0-8.09.53,15.46,15.46,0,0,0-7.16,4.77q-3.18,3.58-3.71,10.74-.54,9.28-.26,18.16t.66,17.76q.39,8.9.4,17.64a146.89,146.89,0,0,1-1.06,17.5v1.06a40.19,40.19,0,0,1-7.83,1.59,58.28,58.28,0,0,1-6.76.13q-3.45-.13-7.69-.4a75.2,75.2,0,0,0-10.6.27q0-32.61-.67-65.23t.4-67.61c2.12.18,3.89.31,5.31.4s2.73.13,4,.13,2.56,0,4-.13,3.18-.22,5.3-.4a28.42,28.42,0,0,0,3.71-.4q2.66-.39,5.31-.66a30.24,30.24,0,0,1,4.77-.13c1.41.09,2.12.4,2.12.93a47.64,47.64,0,0,1,.4,7.42A56.28,56.28,0,0,0,847.28,508Z" transform="translate(-304.8 -358.85)"/><path class="cls-1" d="M963.68,492.92h4.51v.79q-.27,32.09-1.2,65.49t.93,65.49c-.88,1.06-3.09,1.63-6.63,1.73s-7.38.08-11.53,0-8.09-.22-11.8-.4-6.19-.09-7.42.26q1.32-16.69,1.19-33.94t-.66-34.2q-.54-17-.53-33.54a318.9,318.9,0,0,1,1.59-32.22v-.26a12.1,12.1,0,0,1,3.58,0,38.19,38.19,0,0,0,3.84.26q3.45.27,9.55.54T963.68,492.92Zm-32.61-57.81,36.06.8c0,1.06,0,3,.13,5.7s.17,5.75.26,9,.18,6.63.27,10.08.13,6.5.13,9.15q-1.06,1.59-4.9,2.12a56.58,56.58,0,0,1-9,.4c-3.44-.09-7.12-.27-11-.53a90.93,90.93,0,0,0-10.87-.14q0-7.68-.67-16T931.07,435.11Z" transform="translate(-304.8 -358.85)"/><path class="cls-1" d="M1033.68,444.92v35.53q0,3.45.13,7.16t.13,7.69q8.22-.26,17.37-.79l22.67-1.33a10.33,10.33,0,0,1,2.12,6.23,77.27,77.27,0,0,1,0,8.88c-.18,3.19-.4,6.41-.66,9.68a35.88,35.88,0,0,0,.13,8.35h-41.1v28q0,13.65.27,25.58a17.45,17.45,0,0,0,7.69,5.84A58.2,58.2,0,0,0,1053.3,589a75.2,75.2,0,0,0,11.8,1.46,101.09,101.09,0,0,0,10.47,0c.35,2.48.7,5.21,1.06,8.22s.62,6.1.79,9.28a67.52,67.52,0,0,1-.13,9.54,37.39,37.39,0,0,1-1.72,8.75,202.74,202.74,0,0,1-22-.13,124.46,124.46,0,0,1-21.48-3,61.19,61.19,0,0,1-17.89-7.16,27.19,27.19,0,0,1-11.27-13,280.82,280.82,0,0,1-4-38.58q-.54-18.15-.26-37.52c-2.83.18-5.8.27-8.89.27h-10.2l.79-32.35q5.31.27,9.94.27h8.89q0-5.84-.27-12.6c-.18-4.51-.26-9.05-.26-13.65s0-9,.13-13.26.31-8,.66-11.4a35.67,35.67,0,0,1,7.56-.27q4.11.27,8.62.67t9,.66A50.42,50.42,0,0,0,1033.68,444.92Z" transform="translate(-304.8 -358.85)"/><rect id="Rectangle" class="cls-2" x="815.22" width="464.01" height="349.85" rx="9.6" ry="9.6"/><path class="cls-1" d="M1231.55,535.72q3.45-2.13,11.27-2.54t16.57-.17q8.74.25,16.31.9t10.21.64h.53l.26.26q1.62,14.06,2.18,29.83a138.73,138.73,0,0,1-2.06,30.09q-1.29,13.53-8.17,20.7a44.63,44.63,0,0,1-17,10.91q-6.63,1.86-13.78,3.34a131.59,131.59,0,0,1-14.58,2.15,71.79,71.79,0,0,1-14.45-.1,49.26,49.26,0,0,1-13.4-3.42q-10.62-4.48-16.2-12.17a59.71,59.71,0,0,1-8.79-19.07c-.53-1.94-1.11-4.64-1.74-8.08s-1.12-6.94-1.47-10.47q-.82-8.49-1.36-15.38c-.37-4.59-.68-9.15-1-13.65s-.46-9.28-.56-14.32-.06-10.83.1-17.37q.24-8.47.76-17.37t1.82-17.37a75.44,75.44,0,0,1,4.61-17,29.66,29.66,0,0,1,11-13.54,34.38,34.38,0,0,1,11.91-6.65,86.57,86.57,0,0,1,13.79-3.21,83.3,83.3,0,0,1,27.84.87,57,57,0,0,1,22.82,9.9,43.59,43.59,0,0,1,14.36,18.93q4.78,11.79,3,28l-.26,1.59c-.36.54-1.15.8-2.39.8s-3.27.1-6.09.28c-2.66,0-4.91.06-6.77.15s-3.71.14-5.56.14-3.76-.08-5.71-.25-4.24-.43-6.89-.78c-.53-1.77-1.29-3.93-2.27-6.5a35.14,35.14,0,0,0-3.72-7.15,30.18,30.18,0,0,0-5.19-5.82,10.19,10.19,0,0,0-6.89-2.5c-3-.17-5.93-.26-8.76-.25a10.14,10.14,0,0,0-7.41,3.19A10.34,10.34,0,0,0,1217,486a31.57,31.57,0,0,0-1.45,4.38,104.51,104.51,0,0,0-3,15.38q-1.18,9-1.69,19.23t-.22,21.08q.28,10.88,1.1,20.68a95,95,0,0,0,2.15,12.72,18.69,18.69,0,0,0,6.65,10.86,17.36,17.36,0,0,0,6.1,2.37,26.56,26.56,0,0,0,8.35-.28,49.69,49.69,0,0,0,8.09-2.14,15.77,15.77,0,0,0,5-3.59,14.28,14.28,0,0,0,3.17-6c.17-.7.39-1.9.65-3.58a50.54,50.54,0,0,0,.52-5.17,41.87,41.87,0,0,0,0-4.77c-.09-1.42-.4-2.21-.93-2.39a22.35,22.35,0,0,0-4.38-.12l-5.83.28c-2,.09-3.89.1-5.57,0a12.42,12.42,0,0,1-3.84-.66c-.36-2.82-.59-5.3-.68-7.42s-.1-4.2,0-6.23.12-4.11.12-6.23a76.29,76.29,0,0,0-.55-8v-.26a.24.24,0,0,1,.26-.27Z" transform="translate(-304.8 -358.85)"/><path class="cls-1" d="M1336.07,561.23V566c.18,5.3.42,9.63.69,13a21.91,21.91,0,0,0,3.33,9.8,20.13,20.13,0,0,0,9,9,17.57,17.57,0,0,0,11.4,1.83q5.57-1.07,9.4-6.51t3.28-16.31a58.21,58.21,0,0,0,7.16.11c3-.09,6.14-.23,9.41-.41s6.41-.24,9.42-.15a32.22,32.22,0,0,1,7.42.91q-.51,6.9-1,13.52t-1.3,12.34a70.2,70.2,0,0,1-2,9.81c-.79,2.74-1.81,4.64-3,5.71a24.42,24.42,0,0,1-11.65,9,54.72,54.72,0,0,1-15.63,3.22,143.7,143.7,0,0,1-17.37,0q-8.9-.51-16.31-.49a37.7,37.7,0,0,1-13.8-4.75,41.57,41.57,0,0,1-12-13.1,80.14,80.14,0,0,1-7.73-17.75,106.75,106.75,0,0,1-4-20.54,149,149,0,0,1-.57-21.74q.78-9.81,1.68-19a74.27,74.27,0,0,1,4.08-17.91,33.47,33.47,0,0,1,10.58-13.14,51.85,51.85,0,0,1,16.15-8.26,71.06,71.06,0,0,1,19.09-3.08,72.54,72.54,0,0,1,19.62,2.08q12.21,2.1,19.64,8.44a41.39,41.39,0,0,1,11.3,15.36,61.83,61.83,0,0,1,4.68,19.88,152.34,152.34,0,0,1,.05,22,47.65,47.65,0,0,1-7,1.08q-5.16.54-12.19,1.08t-15,.83q-8,.28-15.25.29c-4.86,0-9.24-.06-13.12-.24A61.55,61.55,0,0,1,1336.07,561.23Zm32-41.17a19.3,19.3,0,0,0-4.25-2,17.35,17.35,0,0,0-5-.65,33.4,33.4,0,0,0-10.34,1.35,16,16,0,0,0-6.36,3.72,15.51,15.51,0,0,0-3.57,5.58,33.26,33.26,0,0,0-1.71,6.63,16.55,16.55,0,0,0-.39,4.11c.09.8.93,1.33,2.53,1.59a44.82,44.82,0,0,0,7.55.25q5.18-.15,15.25-.17c4.59,0,8,.08,10.34.25a33.9,33.9,0,0,0,4.91.12c1-.09,1.45-.35,1.45-.8v-2.78a19.74,19.74,0,0,0-2.81-10.07A17.85,17.85,0,0,0,1368.07,520.06Z" transform="translate(-304.8 -358.85)"/><path class="cls-1" d="M1457.13,509.28c.89-.53,2-1.15,3.32-1.86a22.13,22.13,0,0,0,3.31-2.13,48.93,48.93,0,0,1,40.81-7.51,31.54,31.54,0,0,1,12.48,6.61c1.77,1.58,3.14,4.9,4.13,9.93a122,122,0,0,1,1.89,18.16q.42,10.6.31,23.2t-.34,25.45q-.24,12.87-.48,24.8t.3,20.94a104.46,104.46,0,0,1-16.57,1.23q-7.29-.12-16.57-.1-.54-6.09-.56-13.79t.1-15.91q.12-8.2,0-16.43t-.69-15.38c-.18-2.12-.37-4.46-.55-7a71.74,71.74,0,0,0-.94-7.55,33.12,33.12,0,0,0-1.87-6.63,10.46,10.46,0,0,0-3.32-4.5.8.8,0,0,0-.53-.26.74.74,0,0,1-.53-.27,22.93,22.93,0,0,0-6.24-1.71,18,18,0,0,0-8.08.55,15.51,15.51,0,0,0-7.15,4.79q-3.18,3.58-3.69,10.74-.53,9.28-.23,18.17t.7,17.76q.41,8.88.43,17.63a144.66,144.66,0,0,1-1,17.5v1.06a39.73,39.73,0,0,1-7.82,1.61,58.28,58.28,0,0,1-6.76.15c-2.3-.09-4.87-.22-7.69-.39a75.76,75.76,0,0,0-10.61.29q-.06-32.61-.79-65.23t.26-67.61c2.12.18,3.88.31,5.3.39s2.74.13,4,.12,2.56,0,4-.14,3.18-.22,5.3-.41a28.76,28.76,0,0,0,3.71-.4c1.76-.27,3.53-.49,5.3-.67a30.49,30.49,0,0,1,4.77-.15q2.13.13,2.13.93a49.12,49.12,0,0,1,.41,7.42A56.46,56.46,0,0,0,1457.13,509.28Z" transform="translate(-304.8 -358.85)"/></svg>