<svg id="Logo" xmlns="http://www.w3.org/2000/svg" viewBox="0 0 1200 328.18"><defs><style>.cls-1{fill:#2196f3;}.cls-2{fill:#ff9800;}.cls-3{fill:#fff;}</style></defs><title>logo</title><path class="cls-1" d="M471.18,514.65v3.61a18.48,18.48,0,0,1-.25,3.11,52.15,52.15,0,0,1-7.83,21.89,62.95,62.95,0,0,1-36.69,27A54,54,0,0,1,403,571.36c.16,2.33.25,4.6.25,6.84v9.7q0,6.35.12,17t.62,28.85V634a.52.52,0,0,0-.37.13.51.51,0,0,1-.37.12,43.8,43.8,0,0,1-8.83,1.37q-5.35.38-11.19.5T371.69,636c-3.82-.16-7.13-.41-9.95-.74q-.75-18.16-.74-39.43V552.21q0-22.38-.13-45T360,463.91a144.14,144.14,0,0,1,22.26-4,131.43,131.43,0,0,1,24.13-.24,117.23,117.23,0,0,1,23.5,4.35A63.4,63.4,0,0,1,450.16,474a53.75,53.75,0,0,1,14.55,16.54Q470.44,500.48,471.18,514.65Zm-43.53-10.44a30.68,30.68,0,0,0-14.42-6.34,39.31,39.31,0,0,0-16.17.62,1,1,0,0,0-.75.25q.26,4.47.13,9.45c-.09,3.32-.09,6.63,0,9.95s.25,6.51.5,9.57a34.78,34.78,0,0,0,1.61,8.33h.75q4-.24,8.46-.37t8.83-.62a41,41,0,0,0,8.45-1.87,17.81,17.81,0,0,0,7.09-4.35,17.63,17.63,0,0,0,2.86-6.22,16.53,16.53,0,0,0,.25-7,18.1,18.1,0,0,0-2.49-6.47A15.37,15.37,0,0,0,427.65,504.21Z" transform="translate(-360 -385.91)"/><path class="cls-1" d="M516,525.85c.83-.5,1.87-1.08,3.11-1.74a20.5,20.5,0,0,0,3.11-2,46.59,46.59,0,0,1,25-8.46,44.88,44.88,0,0,1,13.31,1.49,29.65,29.65,0,0,1,11.69,6.22q2.49,2.24,3.86,9.33a114.24,114.24,0,0,1,1.74,17q.38,10,.25,21.77t-.38,23.88q-.24,12.06-.49,23.25t.25,19.65a98.82,98.82,0,0,1-15.55,1.12q-6.84-.12-15.55-.12-.49-5.73-.49-12.94t.12-14.92q.12-7.71,0-15.42t-.62-14.43c-.17-2-.33-4.18-.5-6.59a69,69,0,0,0-.87-7.09,30.29,30.29,0,0,0-1.74-6.22,9.8,9.8,0,0,0-3.11-4.23.73.73,0,0,0-.5-.24.73.73,0,0,1-.49-.25,21.53,21.53,0,0,0-5.85-1.62,16.75,16.75,0,0,0-7.58.5,14.52,14.52,0,0,0-6.72,4.48q-3,3.35-3.48,10.07-.51,8.7-.25,17t.62,16.66q.38,8.34.37,16.54a137,137,0,0,1-1,16.42v1a36.67,36.67,0,0,1-7.34,1.49,53.32,53.32,0,0,1-6.34.13q-3.24-.14-7.21-.37a69.93,69.93,0,0,0-9.95.24q0-10.18-.13-24.49T483,582.31q-.12-16.42-.12-33.95v-34.2q0-16.66.12-31.47t.38-25.74c2,.17,3.64.29,5,.37s2.57.13,3.73.13,2.4,0,3.73-.13,3-.2,5-.37a27.24,27.24,0,0,0,3.48-.37c1.66-.25,3.31-.46,5-.62a27.82,27.82,0,0,1,4.48-.13c1.33.09,2,.37,2,.87a49.83,49.83,0,0,1,.25,6.59v62.56Z" transform="translate(-360 -385.91)"/><path class="cls-1" d="M627.38,684.53v2.74c0,.16-1.12.37-3.36.62s-5,.41-8.21.5-6.67.08-10.32,0a59.8,59.8,0,0,1-9.45-.87V671.1q0-20.64-.5-41.29t-.87-40.66q-.37-20-.5-39.3t.38-37.19q7.69,0,16.91-.37a97.2,97.2,0,0,1,16.66.62,4.24,4.24,0,0,1,.25,1.74c0,1.66,0,3,.13,4s.12,2.41.12,4.23a5.56,5.56,0,0,0,1.12,1.87c.41.41.87.12,1.37-.87q3.74-7.47,9.95-9.58a28.09,28.09,0,0,1,13.18-1.12q14.18,1,22.39,7.34a39.15,39.15,0,0,1,12.31,16.17,77.79,77.79,0,0,1,5.35,22q1.23,12.18,1.74,24.62a126.21,126.21,0,0,1-1.12,16.92,79,79,0,0,1-3.48,15A39.1,39.1,0,0,1,685.21,627a20.86,20.86,0,0,1-9.33,6.84,54.26,54.26,0,0,1-14.8,3.11,93,93,0,0,1-15.3,0,50.09,50.09,0,0,1-12.18-2.36c-3.32-1.16-5.14-2.49-5.48-4q.25,11.69.25,18.9V661q0,4.35-.12,6.72c-.09,1.57-.17,3.06-.25,4.47s-.17,3-.25,4.73S627.54,681.21,627.38,684.53Zm38.55-93.77a26.29,26.29,0,0,0,1.49-7.21q.26-3.74.25-7.21a48.91,48.91,0,0,0-1.49-12.07,34.84,34.84,0,0,0-4.48-10.44,24.41,24.41,0,0,0-7.21-7.34,17.07,17.07,0,0,0-9.45-2.74q-6.48,0-9.95,2.74a17.49,17.49,0,0,0-5.35,7.46,37,37,0,0,0-2.24,11.44q-.37,6.72-.37,14.43,0,9.7.37,15.3a23.11,23.11,0,0,0,1.87,8.58,7.07,7.07,0,0,0,4.6,3.85,31.57,31.57,0,0,0,8.33.87q10.2,0,16.29-4.47T665.93,590.76Z" transform="translate(-360 -385.91)"/><path class="cls-1" d="M817.9,470.38q1.49,31.85,1,64.3t-4,64.54a48.94,48.94,0,0,1-12.43,27.86Q792,638.53,774.12,640.26a83.57,83.57,0,0,1-21.64-.87,65.3,65.3,0,0,1-20.27-6.72A45.68,45.68,0,0,1,717,619.74a34,34,0,0,1-6.59-19.52q0-32.84.75-66.17t.25-66.16l-.25-.24h.25c2.48,0,5.26-.09,8.33-.25s6.17-.25,9.32-.25,6.22.12,9.21.37a47.63,47.63,0,0,1,8.21,1.37v.25a970.64,970.64,0,0,0,2.23,122.12A14.29,14.29,0,0,0,755.1,600a16.73,16.73,0,0,0,9.57,2.48,16.19,16.19,0,0,0,9.21-3.48,14.82,14.82,0,0,0,5.47-9q1.23-29.85,1.37-60.69t.87-59.7q3.23-.24,8.33-.87t10.32-.87a66.35,66.35,0,0,1,10,.25A19.42,19.42,0,0,1,817.9,470.38Z" transform="translate(-360 -385.91)"/><path class="cls-1" d="M868.89,525.85c.82-.5,1.86-1.08,3.1-1.74a20,20,0,0,0,3.11-2,46.58,46.58,0,0,1,25-8.46,44.92,44.92,0,0,1,13.31,1.49,29.65,29.65,0,0,1,11.69,6.22q2.48,2.24,3.85,9.33a112.93,112.93,0,0,1,1.74,17q.38,10,.25,21.77t-.37,23.88q-.26,12.06-.5,23.25t.25,19.65a98.7,98.7,0,0,1-15.54,1.12q-6.85-.12-15.55-.12-.5-5.73-.5-12.94t.13-14.92q.12-7.71,0-15.42t-.62-14.43c-.17-2-.34-4.18-.5-6.59a69,69,0,0,0-.87-7.09,31.61,31.61,0,0,0-1.74-6.22,9.88,9.88,0,0,0-3.11-4.23.75.75,0,0,0-.5-.24.75.75,0,0,1-.5-.25,21.44,21.44,0,0,0-5.84-1.62,16.8,16.8,0,0,0-7.59.5,14.49,14.49,0,0,0-6.71,4.48q-3,3.35-3.49,10.07-.5,8.7-.25,17t.63,16.66q.38,8.34.37,16.54a135,135,0,0,1-1,16.42v1a36.59,36.59,0,0,1-7.33,1.49,53.49,53.49,0,0,1-6.35.13c-2.15-.09-4.56-.21-7.21-.37a70,70,0,0,0-10,.24q0-30.59-.62-61.18t.37-63.43c2,.17,3.65.29,5,.38s2.57.12,3.73.12,2.4,0,3.73-.12,3-.21,5-.38a27.17,27.17,0,0,0,3.49-.37c1.65-.25,3.31-.45,5-.62a29,29,0,0,1,4.48-.13c1.32.09,2,.38,2,.87a45.14,45.14,0,0,1,.37,7A53.68,53.68,0,0,0,868.89,525.85Z" transform="translate(-360 -385.91)"/><path class="cls-1" d="M978.08,511.67h4.23v.75q-.25,30.09-1.13,61.43t.88,61.44q-1.26,1.49-6.22,1.61t-10.82,0q-5.85-.12-11.07-.37a26.58,26.58,0,0,0-7,.25q1.23-15.67,1.11-31.84t-.62-32.08q-.5-15.92-.49-31.47a297.32,297.32,0,0,1,1.49-30.22v-.25a11.33,11.33,0,0,1,3.36,0,35.82,35.82,0,0,0,3.6.25c2.16.17,5.14.34,9,.5S972.77,511.84,978.08,511.67Zm-30.6-54.22,33.83.74c0,1,0,2.78.12,5.35s.17,5.39.25,8.46.17,6.22.25,9.45.13,6.09.13,8.58c-.67,1-2.2,1.66-4.61,2a52.12,52.12,0,0,1-8.45.37c-3.24-.08-6.68-.25-10.32-.49a85.9,85.9,0,0,0-10.2-.13q0-7.22-.62-15T947.48,457.45Z" transform="translate(-360 -385.91)"/><path class="cls-1" d="M1043.74,466.65V500c0,2.16,0,4.39.12,6.72s.12,4.72.12,7.21c5.14-.17,10.58-.41,16.3-.75l21.26-1.24a9.64,9.64,0,0,1,2,5.84,72.42,72.42,0,0,1,0,8.34c-.17,3-.37,6-.62,9.07A34.35,34.35,0,0,0,1083,543h-38.55v26.24q0,12.81.25,24a16.3,16.3,0,0,0,7.21,5.47,53.48,53.48,0,0,0,10.2,3.11,69.77,69.77,0,0,0,11.07,1.37,94.15,94.15,0,0,0,9.82,0q.49,3.48,1,7.71t.75,8.71a65.22,65.22,0,0,1-.13,9,35.14,35.14,0,0,1-1.62,8.21,190.22,190.22,0,0,1-20.64-.13,115.61,115.61,0,0,1-20.15-2.86,57.45,57.45,0,0,1-16.79-6.71,25.65,25.65,0,0,1-10.57-12.19,264.88,264.88,0,0,1-3.73-36.19q-.49-17-.25-35.19-4,.24-8.33.24H993l.74-30.34q5,.26,9.33.25h8.33q0-5.47-.25-11.82t-.25-12.8q0-6.46.13-12.44c.08-4,.29-7.54.62-10.7a32.68,32.68,0,0,1,7.09-.24q3.85.24,8.08.62t8.46.62A47.9,47.9,0,0,0,1043.74,466.65Z" transform="translate(-360 -385.91)"/><rect id="Rectangle" class="cls-2" x="764.73" width="435.27" height="328.18" rx="61.07" ry="61.07"/><path class="cls-3" d="M1229.36,551.82q3.23-2,10.56-2.38t15.55-.16q8.21.24,15.3.84t9.57.6h.5l.25.25q1.52,13.18,2.05,28a130.72,130.72,0,0,1-1.94,28.23q-1.21,12.69-7.67,19.42a41.87,41.87,0,0,1-15.9,10.23q-6.21,1.75-12.92,3.13a123.14,123.14,0,0,1-13.68,2,67.39,67.39,0,0,1-13.56-.1,45.94,45.94,0,0,1-12.56-3.21q-10-4.2-15.2-11.41a55.81,55.81,0,0,1-8.24-17.89q-.75-2.73-1.64-7.58c-.58-3.23-1-6.5-1.38-9.82-.51-5.31-.94-10.11-1.28-14.43s-.63-8.58-.89-12.8-.44-8.71-.53-13.43-.06-10.16.1-16.3q.23-7.95.71-16.29t1.71-16.29a69.83,69.83,0,0,1,4.32-15.93,27.88,27.88,0,0,1,10.29-12.71,32.52,32.52,0,0,1,11.18-6.24,82,82,0,0,1,12.93-3,78.1,78.1,0,0,1,26.12.82,53.46,53.46,0,0,1,21.41,9.28A40.9,40.9,0,0,1,1278,492.4q4.5,11.06,2.79,26.24l-.25,1.49c-.33.5-1.08.75-2.24.75s-3.07.09-5.72.26c-2.48,0-4.6.05-6.34.14s-3.48.13-5.22.13-3.53-.07-5.35-.24-4-.4-6.47-.73c-.5-1.65-1.21-3.69-2.13-6.09a32.11,32.11,0,0,0-3.49-6.71,28.33,28.33,0,0,0-4.86-5.46,9.57,9.57,0,0,0-6.47-2.35c-2.83-.16-5.56-.24-8.21-.23a9.5,9.5,0,0,0-7,3,9.4,9.4,0,0,0-1.36,2.61,29.46,29.46,0,0,0-1.36,4.11,96.75,96.75,0,0,0-2.83,14.43q-1.11,8.46-1.59,18t-.2,19.77q.26,10.2,1,19.4a89.78,89.78,0,0,0,2,11.93,17.62,17.62,0,0,0,6.24,10.19,16.49,16.49,0,0,0,5.73,2.22,25,25,0,0,0,7.83-.26,48.1,48.1,0,0,0,7.58-2,14.89,14.89,0,0,0,4.72-3.37,13.31,13.31,0,0,0,3-5.6c.16-.66.37-1.78.61-3.36a44.73,44.73,0,0,0,.49-4.85,41.53,41.53,0,0,0,0-4.48c-.09-1.33-.38-2.07-.87-2.24A20.57,20.57,0,0,0,1244,579l-5.47.26c-1.91.08-3.65.09-5.22,0a11.81,11.81,0,0,1-3.61-.62q-.51-4-.64-7t0-5.85c.08-1.9.12-3.85.11-5.84a68,68,0,0,0-.51-7.46v-.25a.22.22,0,0,1,.25-.25Z" transform="translate(-360 -385.91)"/><path class="cls-3" d="M1327.4,575.75v4.48q.25,7.46.65,12.18a20.56,20.56,0,0,0,3.12,9.2,19,19,0,0,0,8.48,8.44,16.5,16.5,0,0,0,10.69,1.72,13.91,13.91,0,0,0,8.82-6.11q3.6-5.11,3.08-15.31a51.3,51.3,0,0,0,6.72.11c2.81-.08,5.76-.21,8.83-.39s6-.21,8.83-.14a30.33,30.33,0,0,1,7,.86q-.48,6.47-1,12.69T1391.4,615a64.83,64.83,0,0,1-1.85,9.21c-.74,2.57-1.69,4.36-2.85,5.35a22.83,22.83,0,0,1-10.92,8.48,51.52,51.52,0,0,1-14.67,3,134,134,0,0,1-16.29,0q-8.34-.48-15.3-.47a35.25,35.25,0,0,1-12.94-4.45,38.86,38.86,0,0,1-11.22-12.29,75.4,75.4,0,0,1-7.25-16.65,100.42,100.42,0,0,1-3.77-19.27,138.88,138.88,0,0,1-.54-20.39q.73-9.21,1.59-17.79a69.08,69.08,0,0,1,3.82-16.8,31.49,31.49,0,0,1,9.92-12.33,48.62,48.62,0,0,1,15.16-7.74,66.44,66.44,0,0,1,17.9-2.89A68.09,68.09,0,0,1,1360.6,512q11.45,2,18.42,7.92a38.78,38.78,0,0,1,10.6,14.41A57.82,57.82,0,0,1,1394,553a142.28,142.28,0,0,1,0,20.65,45,45,0,0,1-6.58,1q-4.86.51-11.44,1t-14.06.78q-7.46.26-14.3.27t-12.31-.22A58.68,58.68,0,0,1,1327.4,575.75Zm30-38.61a17,17,0,0,0-4-1.86,15.77,15.77,0,0,0-4.72-.61,31.22,31.22,0,0,0-9.7,1.26,15.06,15.06,0,0,0-6,3.49,14.52,14.52,0,0,0-3.35,5.23,31,31,0,0,0-1.6,6.22,15.23,15.23,0,0,0-.37,3.86c.08.75.87,1.24,2.37,1.49a42,42,0,0,0,7.09.23c3.23-.08,8-.14,14.3-.15q6.46,0,9.7.23a30.76,30.76,0,0,0,4.6.11c.91-.08,1.37-.33,1.37-.74s0-1.29,0-2.62a18.47,18.47,0,0,0-2.63-9.44A16.72,16.72,0,0,0,1357.42,537.14Z" transform="translate(-360 -385.91)"/><path class="cls-3" d="M1441,527c.82-.5,1.86-1.08,3.1-1.75a20.5,20.5,0,0,0,3.11-2,45.94,45.94,0,0,1,38.29-7,29.71,29.71,0,0,1,11.7,6.2q2.49,2.24,3.87,9.32a113.73,113.73,0,0,1,1.78,17q.39,10,.29,21.77t-.32,23.87q-.22,12.08-.45,23.26t.28,19.65a99,99,0,0,1-15.54,1.15c-4.56-.08-9.74-.1-15.55-.09q-.51-5.71-.52-12.94t.1-14.92q.11-7.71,0-15.42t-.66-14.43q-.26-3-.51-6.59A65.82,65.82,0,0,0,1469,567a31.6,31.6,0,0,0-1.75-6.22,9.8,9.8,0,0,0-3.12-4.22.77.77,0,0,0-.5-.25.73.73,0,0,1-.5-.24,21.22,21.22,0,0,0-5.85-1.61,16.75,16.75,0,0,0-7.58.51,14.59,14.59,0,0,0-6.71,4.49q-3,3.38-3.46,10.08-.48,8.72-.21,17t.65,16.67q.39,8.32.41,16.54a138.93,138.93,0,0,1-1,16.41v1a38.36,38.36,0,0,1-7.34,1.51,55.52,55.52,0,0,1-6.34.13q-3.24-.12-7.21-.36a70.54,70.54,0,0,0-10,.27q-.06-30.59-.75-61.18t.25-63.43c2,.16,3.64.29,5,.36s2.57.12,3.74.12,2.4,0,3.73-.13,3-.21,5-.38a29.94,29.94,0,0,0,3.48-.38c1.66-.26,3.32-.47,5-.64a29,29,0,0,1,4.48-.13c1.33.08,2,.37,2,.87a44.1,44.1,0,0,1,.39,7A51.7,51.7,0,0,0,1441,527Z" transform="translate(-360 -385.91)"/></svg>