<svg id="Logo" xmlns="http://www.w3.org/2000/svg" viewBox="0 0 1246.47 340.89"><defs><style>.cls-1{fill:#2196f3;}.cls-2{fill:#ff9800;}.cls-3{fill:#fff;}</style></defs><title>logo</title><path class="cls-1" d="M457.46,521.66v3.75a19.84,19.84,0,0,1-.26,3.23,54.13,54.13,0,0,1-8.14,22.74,65.4,65.4,0,0,1-38.1,28,56.31,56.31,0,0,1-24.29,1.16q.25,3.61.26,7.1v10.08q0,6.59.13,17.7t.64,30v.26a.52.52,0,0,0-.38.12.53.53,0,0,1-.39.13,45,45,0,0,1-9.17,1.43c-3.71.25-7.58.43-11.63.51s-8.05,0-12-.13-7.41-.43-10.34-.77q-.76-18.86-.77-41V560.68q0-23.26-.13-46.77T342,469a148.37,148.37,0,0,1,23.13-4.13,135.36,135.36,0,0,1,25.06-.26,121.81,121.81,0,0,1,24.41,4.52,65.92,65.92,0,0,1,21.06,10.33,56.15,56.15,0,0,1,15.11,17.18Q456.68,506.94,457.46,521.66Zm-45.21-10.85a32.05,32.05,0,0,0-15-6.59,40.92,40.92,0,0,0-16.79.65,1,1,0,0,0-.77.26c.16,3.1.21,6.37.12,9.82s-.08,6.89,0,10.33.26,6.76.52,10a36.77,36.77,0,0,0,1.68,8.65h.78q4.13-.25,8.78-.38c3.1-.09,6.16-.3,9.17-.65a43,43,0,0,0,8.79-1.94,13.57,13.57,0,0,0,10.33-11,17.14,17.14,0,0,0,.26-7.23,18.68,18.68,0,0,0-2.59-6.72A16.06,16.06,0,0,0,412.25,510.81Z" transform="translate(-341.97 -387.93)"/><path class="cls-1" d="M504,533.29c.86-.52,1.94-1.12,3.23-1.81a19.9,19.9,0,0,0,3.23-2.07,48.38,48.38,0,0,1,26-8.78,46.66,46.66,0,0,1,13.82,1.55,30.74,30.74,0,0,1,12.14,6.46q2.58,2.33,4,9.69a119.59,119.59,0,0,1,1.81,17.7q.38,10.34.25,22.6t-.38,24.8q-.27,12.54-.52,24.16t.26,20.41a102,102,0,0,1-16.15,1.16q-7.11-.12-16.15-.13-.51-5.94-.51-13.43t.13-15.5q.12-8,0-16t-.65-15c-.17-2.07-.35-4.35-.52-6.85a68.18,68.18,0,0,0-.9-7.36,31.46,31.46,0,0,0-1.81-6.46A10.09,10.09,0,0,0,528,564a.79.79,0,0,0-.51-.25.74.74,0,0,1-.52-.26,21.92,21.92,0,0,0-6.07-1.68,17.35,17.35,0,0,0-7.88.52,15.05,15.05,0,0,0-7,4.65q-3.11,3.48-3.62,10.46-.51,9-.25,17.7t.64,17.31q.39,8.65.39,17.18a143.41,143.41,0,0,1-1,17.05v1a38.46,38.46,0,0,1-7.63,1.55,55.25,55.25,0,0,1-6.58.13q-3.36-.13-7.5-.39a74.24,74.24,0,0,0-10.33.26q0-10.59-.13-25.45t-.26-31.9q-.14-17.06-.13-35.27V521.15q0-17.31.13-32.69t.39-26.74c2.07.18,3.79.31,5.17.39s2.66.13,3.87.13,2.5,0,3.88-.13,3.1-.21,5.16-.39a27.9,27.9,0,0,0,3.62-.38c1.72-.26,3.44-.48,5.17-.65a30,30,0,0,1,4.65-.13c1.38.09,2.07.39,2.07.91a51.64,51.64,0,0,1,.25,6.84v65Z" transform="translate(-341.97 -387.93)"/><path class="cls-1" d="M619.71,698.12V701c0,.17-1.16.39-3.49.65s-5.17.43-8.53.52-6.93.08-10.72,0a61.46,61.46,0,0,1-9.81-.91V684.17q0-21.45-.52-42.89T585.73,599q-.37-20.79-.51-40.82t.38-38.62q8,0,17.57-.39a100.48,100.48,0,0,1,17.31.65,4.41,4.41,0,0,1,.26,1.8c0,1.73,0,3.1.13,4.14s.13,2.5.13,4.39a5.71,5.71,0,0,0,1.16,1.94c.43.43.91.13,1.42-.91q3.88-7.74,10.34-9.94a29.18,29.18,0,0,1,13.69-1.17q14.73,1,23.25,7.63a40.53,40.53,0,0,1,12.79,16.79,80.57,80.57,0,0,1,5.56,22.86Q690.5,580.05,691,593a129.08,129.08,0,0,1-1.17,17.57,81.84,81.84,0,0,1-3.61,15.63,40.7,40.7,0,0,1-6.46,12.14,21.79,21.79,0,0,1-9.69,7.11,56.7,56.7,0,0,1-15.37,3.23,98,98,0,0,1-15.89,0,52,52,0,0,1-12.66-2.46c-3.45-1.2-5.34-2.58-5.69-4.13q.25,12.13.26,19.63v12q0,4.51-.13,7c-.09,1.64-.17,3.19-.26,4.65s-.17,3.1-.25,4.91S619.88,694.67,619.71,698.12Zm40-97.4a27.59,27.59,0,0,0,1.55-7.49q.26-3.87.26-7.49A50.07,50.07,0,0,0,660,573.21a36,36,0,0,0-4.65-10.85,25.38,25.38,0,0,0-7.49-7.63,17.73,17.73,0,0,0-9.82-2.84q-6.72,0-10.33,2.84a18,18,0,0,0-5.56,7.75,38.47,38.47,0,0,0-2.32,11.89q-.39,7-.39,15,0,10.08.39,15.89a24,24,0,0,0,1.94,8.92,7.37,7.37,0,0,0,4.77,4,33,33,0,0,0,8.66.9q10.59,0,16.92-4.65T659.75,600.72Z" transform="translate(-341.97 -387.93)"/><path class="cls-1" d="M817.61,475.68q1.54,33.07,1,66.78t-4.13,67a50.87,50.87,0,0,1-12.92,28.93q-10.85,11.89-29.45,13.69a86.5,86.5,0,0,1-22.48-.9,68.1,68.1,0,0,1-21.06-7,47.35,47.35,0,0,1-15.76-13.43q-6.33-8.39-6.84-20.28,0-34.11.77-68.72t.26-68.73l-.26-.26H707q3.87,0,8.66-.25t9.68-.26q4.9,0,9.56.39a48,48,0,0,1,8.53,1.42v.25a1010.17,1010.17,0,0,0,2.32,126.86,14.81,14.81,0,0,0,6.59,9,17.33,17.33,0,0,0,10,2.58,16.84,16.84,0,0,0,9.56-3.61,15.35,15.35,0,0,0,5.68-9.3q1.29-31,1.42-63t.91-62c2.23-.17,5.12-.47,8.65-.9s7.11-.73,10.72-.91a68.82,68.82,0,0,1,10.34.26A20.07,20.07,0,0,1,817.61,475.68Z" transform="translate(-341.97 -387.93)"/><path class="cls-1" d="M870.57,533.29c.86-.52,1.94-1.12,3.23-1.81a20.82,20.82,0,0,0,3.23-2.07,48.3,48.3,0,0,1,26-8.78,46.62,46.62,0,0,1,13.82,1.55A30.84,30.84,0,0,1,929,528.64q2.58,2.33,4,9.69a118.26,118.26,0,0,1,1.81,17.7q.39,10.34.26,22.6t-.39,24.8q-.25,12.54-.51,24.16t.25,20.41a101.91,101.91,0,0,1-16.14,1.16q-7.11-.12-16.15-.13-.52-5.94-.52-13.43t.13-15.5q.13-8,0-16t-.64-15q-.27-3.11-.52-6.85a70.79,70.79,0,0,0-.91-7.36,32.11,32.11,0,0,0-1.8-6.46,10.25,10.25,0,0,0-3.23-4.4.81.81,0,0,0-.52-.25.76.76,0,0,1-.52-.26,21.92,21.92,0,0,0-6.07-1.68,17.36,17.36,0,0,0-7.88.52,15,15,0,0,0-7,4.65q-3.1,3.48-3.62,10.46-.53,9-.26,17.7t.65,17.31q.38,8.65.38,17.18a141.33,141.33,0,0,1-1,17.05v1a38.52,38.52,0,0,1-7.62,1.55,55.42,55.42,0,0,1-6.59.13q-3.36-.13-7.49-.39a74.38,74.38,0,0,0-10.34.26q0-31.77-.64-63.55t.39-65.88c2.06.17,3.78.3,5.16.38s2.67.13,3.88.13,2.49,0,3.87-.13,3.1-.21,5.17-.38a28.63,28.63,0,0,0,3.62-.39c1.72-.26,3.44-.47,5.16-.65a30.05,30.05,0,0,1,4.66-.13c1.37.09,2.06.39,2.06.91a46.31,46.31,0,0,1,.39,7.23A55.58,55.58,0,0,0,870.57,533.29Z" transform="translate(-341.97 -387.93)"/><path class="cls-1" d="M984,518.56h4.39v.78q-.25,31.26-1.16,63.81t.9,63.82q-1.29,1.54-6.46,1.68c-3.45.08-7.19.08-11.24,0s-7.88-.22-11.49-.39-6-.09-7.24.26q1.29-16.28,1.17-33.07t-.65-33.33q-.53-16.53-.52-32.68a311.24,311.24,0,0,1,1.55-31.39v-.26a11.51,11.51,0,0,1,3.49,0c1.64.17,2.88.26,3.75.26q3.35.26,9.3.51T984,518.56Zm-31.78-56.32,35.14.78c0,1,0,2.88.13,5.55s.17,5.6.25,8.79.17,6.45.26,9.81.13,6.33.13,8.92q-1,1.55-4.78,2.06a53.71,53.71,0,0,1-8.78.39c-3.36-.08-6.94-.26-10.72-.52a90.43,90.43,0,0,0-10.6-.12q0-7.5-.64-15.64T952.21,462.24Z" transform="translate(-341.97 -387.93)"/><path class="cls-1" d="M1052.19,471.8v34.62q0,3.36.13,7c.08,2.41.13,4.91.13,7.49q8-.25,16.92-.78l22.09-1.29a10.1,10.1,0,0,1,2.07,6.07,73.49,73.49,0,0,1,0,8.66c-.18,3.1-.39,6.24-.65,9.43a35.2,35.2,0,0,0,.13,8.14h-40v27.25q0,13.32.25,24.93a17,17,0,0,0,7.5,5.69,56.42,56.42,0,0,0,10.59,3.23,73.91,73.91,0,0,0,11.5,1.42,101.58,101.58,0,0,0,10.2,0c.34,2.41.69,5.08,1,8s.61,5.94.78,9a67.15,67.15,0,0,1-.13,9.3,36.75,36.75,0,0,1-1.68,8.53,199.89,199.89,0,0,1-21.44-.13,121.15,121.15,0,0,1-20.93-3,59.56,59.56,0,0,1-17.44-7,26.58,26.58,0,0,1-11-12.66,273.52,273.52,0,0,1-3.87-37.59q-.52-17.69-.26-36.56c-2.76.18-5.65.26-8.66.26h-9.94l.77-31.52c3.44.18,6.67.26,9.69.26h8.65q0-5.68-.25-12.27t-.26-13.31q0-6.71.13-12.91c.08-4.14.3-7.84.64-11.11a33.91,33.91,0,0,1,7.37-.26q4,.25,8.39.64t8.79.65A49.61,49.61,0,0,0,1052.19,471.8Z" transform="translate(-341.97 -387.93)"/><rect id="Rectangle" class="cls-2" x="794.35" width="452.13" height="340.89" rx="9.6" ry="9.6"/><path class="cls-3" d="M1245,560.27q3.35-2.07,11-2.48t16.15-.16q8.54.24,15.89.87t10,.63h.52l.26.26q1.58,13.68,2.12,29.06a135.5,135.5,0,0,1-2,29.32q-1.26,13.18-8,20.17a43.33,43.33,0,0,1-16.51,10.63q-6.45,1.81-13.43,3.26a129.83,129.83,0,0,1-14.2,2.09,69.6,69.6,0,0,1-14.08-.1,48,48,0,0,1-13.06-3.33q-10.33-4.38-15.78-11.86a57.9,57.9,0,0,1-8.56-18.58q-.78-2.84-1.7-7.88t-1.44-10.2q-.8-8.26-1.32-15t-.93-13.31q-.4-6.58-.55-13.95t.1-16.92q.24-8.26.74-16.92t1.77-16.93a73.65,73.65,0,0,1,4.49-16.54,29,29,0,0,1,10.7-13.2,33.56,33.56,0,0,1,11.61-6.48,84.49,84.49,0,0,1,13.43-3.13,81.45,81.45,0,0,1,27.13.85,55.62,55.62,0,0,1,22.24,9.64,42.38,42.38,0,0,1,14,18.45q4.68,11.49,2.9,27.25l-.25,1.55c-.35.52-1.13.78-2.33.78s-3.19.1-5.94.27c-2.58,0-4.78.05-6.59.14s-3.62.14-5.42.14-3.67-.08-5.56-.24-4.13-.42-6.72-.77q-.78-2.56-2.21-6.32a33.41,33.41,0,0,0-3.63-7,28.94,28.94,0,0,0-5-5.67,9.94,9.94,0,0,0-6.72-2.44q-4.4-.25-8.53-.25a8.29,8.29,0,0,0-8.64,5.83,30.84,30.84,0,0,0-1.41,4.27,101.74,101.74,0,0,0-2.94,15q-1.15,8.79-1.64,18.74t-.22,20.54q.27,10.59,1.07,20.15a91.21,91.21,0,0,0,2.1,12.39,18.18,18.18,0,0,0,6.48,10.58,17.26,17.26,0,0,0,5.94,2.32,26.13,26.13,0,0,0,8.14-.28,49.73,49.73,0,0,0,7.88-2.08,15.55,15.55,0,0,0,4.9-3.5,13.92,13.92,0,0,0,3.09-5.82c.16-.69.38-1.85.64-3.49a47.78,47.78,0,0,0,.5-5,42.12,42.12,0,0,0,0-4.65c-.09-1.37-.39-2.15-.91-2.32a21.14,21.14,0,0,0-4.26-.12l-5.68.27c-2,.09-3.79.09-5.43,0a12,12,0,0,1-3.75-.64c-.35-2.75-.57-5.17-.66-7.23s-.09-4.09,0-6.07.12-4,.12-6.08a74.25,74.25,0,0,0-.53-7.75v-.25a.23.23,0,0,1,.26-.26Z" transform="translate(-341.97 -387.93)"/><path class="cls-3" d="M1346.84,585.13v4.65q.27,7.74.67,12.65a21.51,21.51,0,0,0,3.25,9.56,19.62,19.62,0,0,0,8.8,8.76,17.14,17.14,0,0,0,11.11,1.79q5.43-1,9.16-6.35t3.2-15.9a55,55,0,0,0,7,.12q4.38-.13,9.17-.41t9.17-.14a31.16,31.16,0,0,1,7.23.89q-.49,6.72-1,13.17t-1.27,12a68.65,68.65,0,0,1-1.92,9.56c-.77,2.68-1.76,4.53-3,5.57a23.75,23.75,0,0,1-11.35,8.8,53.43,53.43,0,0,1-15.23,3.13,138.46,138.46,0,0,1-16.93,0q-8.65-.51-15.89-.49a36.78,36.78,0,0,1-13.44-4.62A40.51,40.51,0,0,1,1324,635.16a78.48,78.48,0,0,1-7.53-17.29,103.79,103.79,0,0,1-3.92-20,145.52,145.52,0,0,1-.56-21.18q.76-9.55,1.65-18.48a71.8,71.8,0,0,1,4-17.44,32.67,32.67,0,0,1,10.3-12.81,50.45,50.45,0,0,1,15.75-8,68.67,68.67,0,0,1,18.59-3,70.57,70.57,0,0,1,19.13,2q11.88,2,19.13,8.22a40.4,40.4,0,0,1,11,15,60.25,60.25,0,0,1,4.56,19.36,149,149,0,0,1,0,21.45,46.61,46.61,0,0,1-6.85,1.05q-5,.53-11.88,1t-14.6.81c-5.16.18-10.12.28-14.85.29s-9-.07-12.79-.24A60.69,60.69,0,0,1,1346.84,585.13ZM1378,545a17.9,17.9,0,0,0-4.14-1.93,16.57,16.57,0,0,0-4.91-.64,32.79,32.79,0,0,0-10.07,1.31,15.58,15.58,0,0,0-6.19,3.63,15.09,15.09,0,0,0-3.48,5.44,32.25,32.25,0,0,0-1.67,6.46,16,16,0,0,0-.38,4c.09.78.91,1.29,2.46,1.55a42.87,42.87,0,0,0,7.36.24q5-.14,14.86-.16c4.48,0,7.84.08,10.08.24a32.14,32.14,0,0,0,4.78.12c.94-.09,1.42-.35,1.42-.78s0-1.33,0-2.71a19.25,19.25,0,0,0-2.73-9.81A17.36,17.36,0,0,0,1378,545Z" transform="translate(-341.97 -387.93)"/><path class="cls-3" d="M1464.81,534.51c.85-.52,1.93-1.12,3.22-1.82a21.59,21.59,0,0,0,3.23-2.07,48.29,48.29,0,0,1,25.94-8.84,46.35,46.35,0,0,1,13.83,1.53,30.75,30.75,0,0,1,12.16,6.43q2.58,2.32,4,9.68a119.2,119.2,0,0,1,1.84,17.69q.42,10.33.31,22.61t-.34,24.8q-.24,12.54-.47,24.16t.3,20.41a103.56,103.56,0,0,1-16.14,1.2q-7.11-.12-16.15-.1-.54-5.94-.55-13.44t.1-15.5q.12-8,0-16t-.68-15c-.17-2.06-.35-4.35-.53-6.84A68.68,68.68,0,0,0,1494,576a32.35,32.35,0,0,0-1.83-6.45,10.15,10.15,0,0,0-3.24-4.39.77.77,0,0,0-.51-.25.74.74,0,0,1-.52-.26,22.32,22.32,0,0,0-6.07-1.67,17.49,17.49,0,0,0-7.88.53,15.15,15.15,0,0,0-7,4.67q-3.09,3.49-3.6,10.47-.49,9-.22,17.7t.68,17.31q.4,8.65.42,17.18a141.28,141.28,0,0,1-1,17v1a38.72,38.72,0,0,1-7.62,1.57,57.6,57.6,0,0,1-6.59.14c-2.24-.08-4.74-.21-7.49-.37a71.78,71.78,0,0,0-10.34.28q-.06-31.79-.77-63.56t.26-65.88c2.06.17,3.78.3,5.16.38s2.67.12,3.88.12,2.49,0,3.87-.14,3.1-.22,5.17-.4a28.63,28.63,0,0,0,3.62-.39q2.58-.39,5.16-.66a28.76,28.76,0,0,1,4.65-.13q2.07.12,2.07.9a46.5,46.5,0,0,1,.4,7.23A56,56,0,0,0,1464.81,534.51Z" transform="translate(-341.97 -387.93)"/></svg>